<svg xmlns="http://www.w3.org/2000/svg" viewBox="0 0 64 64">
  <defs>
    <linearGradient id="mhFaviconGrad" x1="0%" y1="100%" x2="100%" y2="0%">
      <stop offset="0%" stop-color="#21c7a3" />
      <stop offset="100%" stop-color="#1ea9cf" />
    </linearGradient>
  </defs>
  <rect x="1" y="1" width="62" height="62" rx="12" fill="url(#mhFaviconGrad)" />
  <g fill="#ffffff">
    <rect x="13.2" y="26.5" width="3.2" height="20.2" rx="0.9" />
    <rect x="47.6" y="26.5" width="3.2" height="20.2" rx="0.9" />
    <rect x="12.7" y="34.8" width="4.2" height="1.8" rx="0.7" />
    <rect x="47.1" y="34.8" width="4.2" height="1.8" rx="0.7" />
    <rect x="12.7" y="40.8" width="4.2" height="1.8" rx="0.7" />
    <rect x="47.1" y="40.8" width="4.2" height="1.8" rx="0.7" />
    <path d="M12.7 24.7c0-0.8 0.7-1.5 1.5-1.5h1.2c0.8 0 1.5 0.7 1.5 1.5v1.2h-4.2z" />
    <path d="M47.1 24.7c0-0.8 0.7-1.5 1.5-1.5h1.2c0.8 0 1.5 0.7 1.5 1.5v1.2h-4.2z" />
    <path d="M20.3 46.8h23.4v-2.9H20.3z" />
    <rect x="17.3" y="38.9" width="29.4" height="7.9" rx="0.8" />
    <path d="M32 26.8c5.5 3.6 8.4 6.1 8.4 10.3H23.6c0-4.2 2.9-6.7 8.4-10.3z" />
    <path d="M17.8 36.9c2 1.1 3.2 2.2 3.2 3.9h-6.4c0-1.7 1.2-2.8 3.2-3.9z" />
    <path d="M46.2 36.9c2 1.1 3.2 2.2 3.2 3.9H43c0-1.7 1.2-2.8 3.2-3.9z" />
    <path d="M33.4 21.2a3.3 3.3 0 1 1 0 6.6 3.3 3.3 0 1 1 0-6.6zm1 0.3a2.5 2.5 0 1 0 0 5 2.4 2.4 0 1 1 0-5z" />
  </g>
</svg>
